<svg xmlns="http://www.w3.org/2000/svg" fill="none" viewBox="9.52 9.52 60.95 60.95"><path fill="url(#a)" d="M53.429 67.829c-1.581 0-3.296-.324-5.124-1.105-.381-.172-.572-.61-.4-.99.171-.382.61-.572.99-.4 5.79 2.437 10.305-.134 12.61-3.353a.763.763 0 1 1 1.238.895c-1.905 2.648-5.162 4.953-9.314 4.953Z"/><path fill="url(#b)" d="M40 70.476c16.832 0 30.476-13.645 30.476-30.476S56.832 9.524 40 9.524C23.17 9.524 9.524 23.169 9.524 40S23.169 70.476 40 70.476Z"/><path fill="url(#c)" d="M40 70.476c16.832 0 30.476-13.645 30.476-30.476S56.832 9.524 40 9.524C23.17 9.524 9.524 23.169 9.524 40S23.169 70.476 40 70.476Z" opacity=".5"/><path fill="url(#d)" d="M49.372 50.057a11.664 11.664 0 0 0 6.685-1.58 1.35 1.35 0 0 1 1.62.17c.17.172.342.286.552.382.419 1.6 1.314 3.009 2.21 4.38 1.485 2.305 2.8 4.362 2.018 7.162a35.123 35.123 0 0 0 1.734-2.057c-.153-2.286-1.353-4.171-2.477-5.924-.742-1.162-1.466-2.285-1.866-3.485a1.78 1.78 0 0 0 .724-.476c.704-.705.78-1.791.247-2.591-.038-.038-.057-.095-.095-.133v-.02c-.038-.056-.095-.095-.133-.152l-.762-.743c1.466-2.114 2.285-4.724 2.095-7.523-.38-6.02-5.371-10.838-11.41-11.029-6.819-.21-12.4 5.352-12.19 12.19.21 6.058 5.01 11.048 11.048 11.429Zm.762-21.467c5.352 0 9.676 4.343 9.676 9.677 0 5.333-4.343 9.676-9.676 9.676-5.353 0-9.677-4.343-9.677-9.676 0-5.334 4.343-9.677 9.677-9.677Z" opacity=".5"/><path fill="url(#e)" d="M30.057 41.295c1.62 0 2.933-1.987 2.933-4.438 0-2.451-1.313-4.438-2.933-4.438-1.62 0-2.933 1.987-2.933 4.438 0 2.451 1.313 4.438 2.933 4.438Z"/><path fill="url(#f)" d="M30.057 33.924c1.257 0 2.362 1.104 2.933 2.723-.038-2.4-1.333-4.323-2.933-4.323-1.6 0-2.895 1.923-2.933 4.323.571-1.619 1.657-2.723 2.933-2.723Z"/><path fill="url(#g)" d="M49.943 41.295c1.62 0 2.933-1.987 2.933-4.438 0-2.451-1.313-4.438-2.933-4.438-1.62 0-2.933 1.987-2.933 4.438 0 2.451 1.313 4.438 2.933 4.438Z"/><path fill="url(#h)" d="M49.943 34.038c-1.257 0-2.362 1.105-2.933 2.724.038-2.4 1.333-4.324 2.933-4.324 1.6 0 2.895 1.924 2.933 4.324-.571-1.619-1.676-2.724-2.933-2.724Z"/><path fill="url(#i)" d="M34.61 27.981c-1.105.057-2.115.038-4.553-.686-3.6-1.047-4.476-.247-6.838 1.905l-.553.495c-.38.343-.438.972-.095 1.467.21.305 1.048.8 1.79.172 2.305-1.924 4-1.715 6.039-1.22 1.619.381 3.295.8 5.086-.076.723-.343.914-.857.742-1.41-.21-.685-.838-.704-1.619-.647Z"/><path fill="url(#j)" d="M45.524 24.362c1.105-.095 2.038-.381 4.419-1.352 2.952-1.2 4.971-.59 7.029.876.19.133.4.267.628.419.438.285.572.914.305 1.428-.153.324-.934.934-1.753.439-2.571-1.562-4.21-1.105-6.152-.324-1.543.628-3.143 1.276-5.048.666-.761-.247-1.028-.704-.952-1.276.114-.686.743-.8 1.524-.876Z"/><path fill="#643800" d="M48.838 59.124a1.32 1.32 0 0 1-.38-.057c-.039 0-2.972-.839-6.534-1.334-4.552-.628-8.038-.476-10.095.476a1.338 1.338 0 0 1-1.772-.647 1.338 1.338 0 0 1 .648-1.772c5.981-2.78 17.962.553 18.457.705.705.19 1.124.934.914 1.638-.133.59-.666.972-1.238.99Z"/><path fill="url(#k)" d="M50.152 57.733a1.34 1.34 0 0 0-.971-1.238c-.514-.152-12.476-3.466-18.457-.705-.629.286-.915.99-.705 1.62 2.705-2.02 7.238-3.048 20.133.323Z"/><path fill="url(#l)" d="M62.115 63.162A.75.75 0 0 1 61.486 62c2.686-4.21 1.048-6.762-.838-9.714-1.2-1.867-2.438-3.81-2.438-6.229 0-.419.343-.762.762-.762s.762.343.762.762c0 1.962 1.066 3.638 2.21 5.41 1.904 2.952 4.056 6.324.837 11.352a.83.83 0 0 1-.666.343Z"/><path fill="url(#m)" d="M49.943 26.02c-6.134 0-11.105 4.97-11.105 11.104 0 6.133 4.971 11.105 11.105 11.105 6.133 0 11.104-4.971 11.104-11.105.02-6.133-4.971-11.105-11.104-11.105Zm0 20.78c-5.353 0-9.676-4.342-9.676-9.676 0-5.352 4.342-9.676 9.676-9.676 5.333 0 9.676 4.343 9.676 9.676a9.666 9.666 0 0 1-9.676 9.676Z"/><path fill="url(#n)" d="M49.943 25.314c-6.514 0-11.81 5.296-11.81 11.81s5.295 11.81 11.81 11.81c6.514 0 11.81-5.296 11.81-11.81s-5.277-11.81-11.81-11.81Zm0 22.343c-5.829 0-10.533-4.724-10.533-10.533 0-5.81 4.723-10.533 10.533-10.533s10.533 4.723 10.533 10.533-4.705 10.533-10.533 10.533Z"/><path fill="url(#o)" d="M49.943 46.114a8.99 8.99 0 1 0 0-17.98 8.99 8.99 0 0 0 0 17.98Z"/><path fill="url(#p)" d="M52.743 27.867a9.67 9.67 0 0 1 6.476 12.057A9.67 9.67 0 0 1 47.162 46.4a9.67 9.67 0 0 1-6.476-12.057 9.67 9.67 0 0 1 12.057-6.476Z" opacity=".5"/><path fill="url(#q)" d="M60.648 44.914c-.039-.038-.058-.095-.096-.133v-.02c-.038-.056-.095-.094-.133-.152l-1.124-1.085a10.6 10.6 0 0 1-1.333 1.6c-.495.495-1.048.933-1.6 1.333l1.162 1.048c.8.8 2.095.8 2.895 0 .686-.705.762-1.79.229-2.59Z"/><path fill="url(#r)" d="M58.953 46.914a.857.857 0 1 0 0-1.714.857.857 0 0 0 0 1.714Z"/><defs><linearGradient id="a" x1="56.619" x2="60.238" y1="63.786" y2="61.31" gradientUnits="userSpaceOnUse"><stop offset=".001" stop-color="#643800"/><stop offset="1" stop-color="#975500"/></linearGradient><linearGradient id="f" x1="30.048" x2="30.048" y1="32.401" y2="36.537" gradientUnits="userSpaceOnUse"><stop offset=".001" stop-color="#3C2200"/><stop offset="1" stop-color="#512D00"/></linearGradient><linearGradient id="h" x1="49.948" x2="49.948" y1="32.51" y2="36.646" gradientUnits="userSpaceOnUse"><stop offset=".001" stop-color="#3C2200"/><stop offset="1" stop-color="#512D00"/></linearGradient><linearGradient id="i" x1="29.127" x2="29.41" y1="32.211" y2="28.438" gradientUnits="userSpaceOnUse"><stop offset=".001" stop-color="#3C2200"/><stop offset="1" stop-color="#512D00"/></linearGradient><linearGradient id="j" x1="51.573" x2="50.759" y1="27.754" y2="24.169" gradientUnits="userSpaceOnUse"><stop offset=".001" stop-color="#3C2200"/><stop offset="1" stop-color="#512D00"/></linearGradient><linearGradient id="k" x1="40.191" x2="39.62" y1="60.73" y2="47.276" gradientUnits="userSpaceOnUse"><stop offset=".001" stop-color="#3C2200"/><stop offset="1" stop-color="#512D00"/></linearGradient><linearGradient id="l" x1="58.321" x2="62.296" y1="48.284" y2="58.013" gradientUnits="userSpaceOnUse"><stop offset=".001" stop-color="#643800"/><stop offset="1" stop-color="#975500"/></linearGradient><linearGradient id="m" x1="47.298" x2="57.203" y1="27.978" y2="62.169" gradientUnits="userSpaceOnUse"><stop/><stop offset="1" stop-color="#8EA5A8"/></linearGradient><linearGradient id="n" x1="53.404" x2="45.499" y1="56.192" y2="12.573" gradientUnits="userSpaceOnUse"><stop/><stop offset="1" stop-color="#8EA5A8"/></linearGradient><linearGradient id="q" x1="57.636" x2="63.731" y1="46.45" y2="44.117" gradientUnits="userSpaceOnUse"><stop/><stop offset="1" stop-color="#8EA5A8"/></linearGradient><linearGradient id="r" x1="57.87" x2="59.14" y1="51.232" y2="45.137" gradientUnits="userSpaceOnUse"><stop/><stop offset="1" stop-color="#8EA5A8"/></linearGradient><radialGradient id="b" cx="0" cy="0" r="1" gradientTransform="matrix(37 0 0 37 34.002 27.648)" gradientUnits="userSpaceOnUse"><stop stop-color="#FFE030"/><stop offset="1" stop-color="#FFB92E"/></radialGradient><radialGradient id="c" cx="0" cy="0" r="1" gradientTransform="matrix(29 0 0 29 34.002 27.648)" gradientUnits="userSpaceOnUse"><stop stop-color="#FFEA5F"/><stop offset="1" stop-color="#FFBC47" stop-opacity="0"/></radialGradient><radialGradient id="d" cx="0" cy="0" r="1" gradientTransform="matrix(32 0 0 32 49.177 46.216)" gradientUnits="userSpaceOnUse"><stop stop-color="#7A4400" stop-opacity=".5"/><stop offset=".583" stop-color="#894D00" stop-opacity=".207"/><stop offset=".995" stop-color="#975500" stop-opacity="0"/></radialGradient><radialGradient id="e" cx="0" cy="0" r="1" gradientTransform="matrix(1 4 -3 1 29.142 36.975)" gradientUnits="userSpaceOnUse"><stop offset=".001" stop-color="#7A4400"/><stop offset="1" stop-color="#643800"/></radialGradient><radialGradient id="g" cx="0" cy="0" r="1" gradientTransform="matrix(1 4 -3 1 49.043 36.976)" gradientUnits="userSpaceOnUse"><stop offset=".001" stop-color="#7A4400"/><stop offset="1" stop-color="#643800"/></radialGradient><radialGradient id="o" cx="0" cy="0" r="1" gradientTransform="matrix(12 0 0 12 45.74 32.498)" gradientUnits="userSpaceOnUse"><stop stop-color="#fff" stop-opacity=".5"/><stop offset="1" stop-color="#fff" stop-opacity="0"/></radialGradient><radialGradient id="p" cx="0" cy="0" r="1" gradientTransform="matrix(-19 -6 6 -19 46.503 31.477)" gradientUnits="userSpaceOnUse"><stop stop-color="#fff" stop-opacity=".24"/><stop offset="1" stop-color="#fff" stop-opacity="0"/></radialGradient></defs></svg>
